<?xml version="1.0" encoding="utf-8" standalone="no"?>
<!DOCTYPE svg PUBLIC "-//W3C//DTD SVG 1.1//EN"
  "http://www.w3.org/Graphics/SVG/1.1/DTD/svg11.dtd">
<svg xmlns:xlink="http://www.w3.org/1999/xlink" width="244.8pt" height="334.8pt" viewBox="0 0 244.8 334.8" xmlns="http://www.w3.org/2000/svg" version="1.1">
 <metadata>
  <rdf:RDF xmlns:dc="http://purl.org/dc/elements/1.1/" xmlns:cc="http://creativecommons.org/ns#" xmlns:rdf="http://www.w3.org/1999/02/22-rdf-syntax-ns#">
   <cc:Work>
    <dc:type rdf:resource="http://purl.org/dc/dcmitype/StillImage"/>
    <dc:format>image/svg+xml</dc:format>
    <dc:creator>
     <cc:Agent>
      <dc:title>Matplotlib v3.10.5, https://matplotlib.org/</dc:title>
     </cc:Agent>
    </dc:creator>
   </cc:Work>
  </rdf:RDF>
 </metadata>
 <defs>
  <style type="text/css">*{stroke-linejoin: round; stroke-linecap: butt}</style>
 </defs>
 <g id="figure_1">
  <g id="patch_1">
   <path d="M 0 334.8 
L 244.8 334.8 
L 244.8 0 
L 0 0 
z
" style="fill: #ffffff"/>
  </g>
  <g id="axes_1">
   <g id="patch_2">
    <path d="M 44.064 241.056 
L 235.008 241.056 
L 235.008 36.828 
L 44.064 36.828 
z
" style="fill: #ffffff"/>
   </g>
   <g id="matplotlib.axis_1">
    <g id="xtick_1">
     <g id="line2d_1">
      <defs>
       <path id="m8a12161297" d="M 0 0 
L 0 3.3 
" style="stroke: #1d3557; stroke-width: 0.95"/>
      </defs>
      <g>
       <use xlink:href="#m8a12161297" x="59.086509" y="241.056" style="fill: #1d3557; stroke: #1d3557; stroke-width: 0.95"/>
      </g>
     </g>
     <g id="text_1">
      <text style="font-weight: 700; font-size: 7.5px; font-family: 'Times New Roman', serif; text-anchor: middle; fill: #1d3557" x="59.086509" y="252.822406" transform="rotate(-0 59.086509 252.822406)">4.13</text>
     </g>
    </g>
    <g id="xtick_2">
     <g id="line2d_2">
      <g>
       <use xlink:href="#m8a12161297" x="108.502658" y="241.056" style="fill: #1d3557; stroke: #1d3557; stroke-width: 0.95"/>
      </g>
     </g>
     <g id="text_2">
      <text style="font-weight: 700; font-size: 7.5px; font-family: 'Times New Roman', serif; text-anchor: middle; fill: #1d3557" x="108.502658" y="252.822406" transform="rotate(-0 108.502658 252.822406)">4.25</text>
     </g>
    </g>
    <g id="xtick_3">
     <g id="line2d_3">
      <g>
       <use xlink:href="#m8a12161297" x="157.918807" y="241.056" style="fill: #1d3557; stroke: #1d3557; stroke-width: 0.95"/>
      </g>
     </g>
     <g id="text_3">
      <text style="font-weight: 700; font-size: 7.5px; font-family: 'Times New Roman', serif; text-anchor: middle; fill: #1d3557" x="157.918807" y="252.822406" transform="rotate(-0 157.918807 252.822406)">4.38</text>
     </g>
    </g>
    <g id="xtick_4">
     <g id="line2d_4">
      <g>
       <use xlink:href="#m8a12161297" x="207.334957" y="241.056" style="fill: #1d3557; stroke: #1d3557; stroke-width: 0.95"/>
      </g>
     </g>
     <g id="text_4">
      <text style="font-weight: 700; font-size: 7.5px; font-family: 'Times New Roman', serif; text-anchor: middle; fill: #1d3557" x="207.334957" y="252.822406" transform="rotate(-0 207.334957 252.822406)">4.50</text>
     </g>
    </g>
    <g id="text_5">
     <text style="font-weight: 700; font-size: 8.5px; font-family: 'Times New Roman', serif; text-anchor: middle; fill: #1d3557" x="139.536" y="264.055297" transform="rotate(-0 139.536 264.055297)">Activation bits / value</text>
    </g>
   </g>
   <g id="matplotlib.axis_2">
    <g id="ytick_1">
     <g id="line2d_5">
      <defs>
       <path id="m75f432d54d" d="M 0 0 
L -3.3 0 
" style="stroke: #1d3557; stroke-width: 0.95"/>
      </defs>
      <g>
       <use xlink:href="#m75f432d54d" x="44.064" y="232.720163" style="fill: #1d3557; stroke: #1d3557; stroke-width: 0.95"/>
      </g>
     </g>
     <g id="text_6">
      <text style="font-weight: 700; font-size: 7.5px; font-family: 'Times New Roman', serif; text-anchor: end; fill: #1d3557" x="37.264" y="235.203366" transform="rotate(-0 37.264 235.203366)">6.20</text>
     </g>
    </g>
    <g id="ytick_2">
     <g id="line2d_6">
      <g>
       <use xlink:href="#m75f432d54d" x="44.064" y="191.04098" style="fill: #1d3557; stroke: #1d3557; stroke-width: 0.95"/>
      </g>
     </g>
     <g id="text_7">
      <text style="font-weight: 700; font-size: 7.5px; font-family: 'Times New Roman', serif; text-anchor: end; fill: #1d3557" x="37.264" y="193.524183" transform="rotate(-0 37.264 193.524183)">6.25</text>
     </g>
    </g>
    <g id="ytick_3">
     <g id="line2d_7">
      <g>
       <use xlink:href="#m75f432d54d" x="44.064" y="149.361796" style="fill: #1d3557; stroke: #1d3557; stroke-width: 0.95"/>
      </g>
     </g>
     <g id="text_8">
      <text style="font-weight: 700; font-size: 7.5px; font-family: 'Times New Roman', serif; text-anchor: end; fill: #1d3557" x="37.264" y="151.844999" transform="rotate(-0 37.264 151.844999)">6.30</text>
     </g>
    </g>
    <g id="ytick_4">
     <g id="line2d_8">
      <g>
       <use xlink:href="#m75f432d54d" x="44.064" y="107.682612" style="fill: #1d3557; stroke: #1d3557; stroke-width: 0.95"/>
      </g>
     </g>
     <g id="text_9">
      <text style="font-weight: 700; font-size: 7.5px; font-family: 'Times New Roman', serif; text-anchor: end; fill: #1d3557" x="37.264" y="110.165815" transform="rotate(-0 37.264 110.165815)">6.35</text>
     </g>
    </g>
    <g id="ytick_5">
     <g id="line2d_9">
      <g>
       <use xlink:href="#m75f432d54d" x="44.064" y="66.003429" style="fill: #1d3557; stroke: #1d3557; stroke-width: 0.95"/>
      </g>
     </g>
     <g id="text_10">
      <text style="font-weight: 700; font-size: 7.5px; font-family: 'Times New Roman', serif; text-anchor: end; fill: #1d3557" x="37.264" y="68.486632" transform="rotate(-0 37.264 68.486632)">6.40</text>
     </g>
    </g>
    <g id="text_11">
     <text style="font-weight: 700; font-size: 8.5px; font-family: 'Times New Roman', serif; text-anchor: middle; fill: #1d3557" x="18.304859" y="138.942" transform="rotate(-90 18.304859 138.942)">WikiText-2 perplexity</text>
    </g>
   </g>
   <g id="line2d_10">
    <path d="M 59.086509 145.171925 
L 83.794584 145.431487 
" clip-path="url(#p839ca43ede)" style="fill: none; stroke-dasharray: 2.55,3.4; stroke-dashoffset: 0; stroke: #1d3557; stroke-width: 1.7"/>
   </g>
   <g id="line2d_11">
    <path d="M 59.086509 145.171925 
L 108.502658 147.2775 
" clip-path="url(#p839ca43ede)" style="fill: none; stroke-dasharray: 2.55,3.4; stroke-dashoffset: 0; stroke: #1d3557; stroke-width: 1.7"/>
   </g>
   <g id="line2d_12">
    <path d="M 108.502658 160.495203 
L 157.918807 161.607206 
" clip-path="url(#p839ca43ede)" style="fill: none; stroke-dasharray: 2.55,3.4; stroke-dashoffset: 0; stroke: #1d3557; stroke-width: 1.7"/>
   </g>
   <g id="line2d_13">
    <path d="M 44.064 229.031418 
L 235.008 229.031418 
" clip-path="url(#p839ca43ede)" style="fill: none; stroke-dasharray: 5.1,3.4; stroke-dashoffset: 0; stroke: #64748b; stroke-width: 1.7"/>
   </g>
   <g id="line2d_14">
    <path d="M 59.086509 64.989935 
L 59.086509 61.6556 
L 108.502658 61.6556 
L 108.502658 64.989935 
" clip-path="url(#p839ca43ede)" style="fill: none; stroke: #457b9d; stroke-width: 1.1; stroke-linecap: square"/>
   </g>
   <g id="line2d_15">
    <path d="M 122.734509 160.495203 
L 126.292472 160.495203 
L 126.292472 110.510092 
L 122.734509 110.510092 
" clip-path="url(#p839ca43ede)" style="fill: none; stroke: #457b9d; stroke-width: 1.1; stroke-linecap: square"/>
   </g>
   <g id="patch_3">
    <path d="M 44.064 241.056 
L 44.064 36.828 
" style="fill: none; stroke: #1d3557; stroke-width: 1.05; stroke-linejoin: miter; stroke-linecap: square"/>
   </g>
   <g id="patch_4">
    <path d="M 44.064 241.056 
L 235.008 241.056 
" style="fill: none; stroke: #1d3557; stroke-width: 1.05; stroke-linejoin: miter; stroke-linecap: square"/>
   </g>
   <g id="text_12">
    <text style="font-weight: 700; font-size: 10.5px; font-family: 'Times New Roman', serif; text-anchor: start; fill: #1d3557" x="15.064" y="22.581984" transform="rotate(-0 15.064 22.581984)">a</text>
   </g>
   <g id="text_13">
    <text style="font-weight: 700; font-size: 7.5px; font-family: 'Times New Roman', serif; text-anchor: start; fill: #385a75" x="44.064" y="33.223703" transform="rotate(-0 44.064 33.223703)">Llama-3.1-8B</text>
   </g>
   <g id="text_14">
    <text style="font-weight: 700; font-size: 7.5px; font-family: 'Times New Roman', serif; text-anchor: end; fill: #64748b" x="227.101416" y="225.031418" transform="rotate(-0 227.101416 225.031418)">bf16 reference</text>
   </g>
   <g id="text_15">
    <text style="font-weight: 700; font-size: 7.5px; font-family: 'Times New Roman', serif; text-anchor: middle; fill: #457b9d" x="83.794584" y="57.6556" transform="rotate(-0 83.794584 57.6556)">Scale resolution</text>
   </g>
   <g id="text_16">
    <text style="font-weight: 700; font-size: 7.5px; font-family: 'Times New Roman', serif; text-anchor: middle; fill: #1d3557" x="207.334957" y="111.868049" transform="rotate(-0 207.334957 111.868049)">(64, 1)</text>
   </g>
   <g id="text_17">
    <text style="font-weight: 700; font-size: 7.5px; font-family: 'Times New Roman', serif; text-anchor: middle; fill: #1d3557" x="104.502658" y="123.195834" transform="rotate(-0 104.502658 123.195834)">(128, 1)</text>
   </g>
   <g id="text_18">
    <text style="font-weight: 700; font-size: 7.5px; font-family: 'Times New Roman', serif; text-anchor: middle; fill: #1d3557" x="59.086509" y="101.727114" transform="rotate(-0 59.086509 101.727114)">(256, 1)</text>
   </g>
   <g id="text_19">
    <text style="font-weight: 700; font-size: 7.5px; font-family: 'Times New Roman', serif; text-anchor: middle; fill: #1d3557" x="76.794584" y="77.681685" transform="rotate(-0 76.794584 77.681685)">(256, 2)</text>
   </g>
   <g id="text_20">
    <text style="font-weight: 700; font-size: 7.5px; font-family: 'Times New Roman', serif; text-anchor: middle; fill: #1d3557" x="134.502658" y="86.745778" transform="rotate(-0 134.502658 86.745778)">(256, 3)</text>
   </g>
   <g id="text_21">
    <text style="font-weight: 700; font-size: 7.5px; font-family: 'Times New Roman', serif; text-anchor: middle; fill: #1d3557" x="202.334957" y="193.637028" transform="rotate(-0 202.334957 193.637028)">(64, 1)</text>
   </g>
   <g id="text_22">
    <text style="font-weight: 700; font-size: 7.5px; font-family: 'Times New Roman', serif; text-anchor: middle; fill: #1d3557" x="102.502658" y="175.180945" transform="rotate(-0 102.502658 175.180945)">(128, 1)</text>
   </g>
   <g id="text_23">
    <text style="font-weight: 700; font-size: 7.5px; font-family: 'Times New Roman', serif; text-anchor: middle; fill: #1d3557" x="62.086509" y="165.857667" transform="rotate(-0 62.086509 165.857667)">(256, 1)</text>
   </g>
   <g id="text_24">
    <text style="font-weight: 700; font-size: 7.5px; font-family: 'Times New Roman', serif; text-anchor: middle; fill: #1d3557" x="82.794584" y="131.117229" transform="rotate(-0 82.794584 131.117229)">(256, 2)</text>
   </g>
   <g id="text_25">
    <text style="font-weight: 700; font-size: 7.5px; font-family: 'Times New Roman', serif; text-anchor: middle; fill: #1d3557" x="144.502658" y="146.963242" transform="rotate(-0 144.502658 146.963242)">(256, 3)</text>
   </g>
   <g id="text_26">
    <text style="font-weight: 700; font-size: 7.5px; font-family: 'Times New Roman', serif; text-anchor: middle; fill: #1d3557" x="157.918807" y="185.292948" transform="rotate(-0 157.918807 185.292948)">(128, 2)</text>
   </g>
   <g id="text_27">
    <text style="font-weight: 700; font-size: 9px; font-family: 'Times New Roman', serif; text-anchor: start; fill: #1d3557" x="44.064" y="24.828" transform="rotate(-0 44.064 24.828)">Activation metadata budget</text>
   </g>
   <g id="line2d_16">
    <path d="M 59.086509 88.041372 
L 108.502658 110.510092 
L 207.334957 120.182306 
" clip-path="url(#p839ca43ede)" style="fill: none; stroke: #56858b; stroke-width: 2.1; stroke-linecap: square"/>
    <defs>
     <path id="m13a57ba98a" d="M 0 2.7 
C 0.716048 2.7 1.402866 2.415511 1.909188 1.909188 
C 2.415511 1.402866 2.7 0.716048 2.7 0 
C 2.7 -0.716048 2.415511 -1.402866 1.909188 -1.909188 
C 1.402866 -2.415511 0.716048 -2.7 0 -2.7 
C -0.716048 -2.7 -1.402866 -2.415511 -1.909188 -1.909188 
C -2.415511 -1.402866 -2.7 -0.716048 -2.7 0 
C -2.7 0.716048 -2.415511 1.402866 -1.909188 1.909188 
C -1.402866 2.415511 -0.716048 2.7 0 2.7 
z
" style="stroke: #56858b"/>
    </defs>
    <g clip-path="url(#p839ca43ede)">
     <use xlink:href="#m13a57ba98a" x="59.086509" y="88.041372" style="fill: #a8dadc; stroke: #56858b"/>
     <use xlink:href="#m13a57ba98a" x="108.502658" y="110.510092" style="fill: #a8dadc; stroke: #56858b"/>
     <use xlink:href="#m13a57ba98a" x="207.334957" y="120.182306" style="fill: #a8dadc; stroke: #56858b"/>
    </g>
   </g>
   <g id="line2d_17">
    <path d="M 59.086509 145.171925 
L 108.502658 160.495203 
L 207.334957 178.951285 
" clip-path="url(#p839ca43ede)" style="fill: none; stroke: #1d3557; stroke-width: 2.1; stroke-linecap: square"/>
    <defs>
     <path id="mbc14d74dda" d="M -2.7 2.7 
L 2.7 2.7 
L 2.7 -2.7 
L -2.7 -2.7 
z
" style="stroke: #1d3557; stroke-linejoin: miter"/>
    </defs>
    <g clip-path="url(#p839ca43ede)">
     <use xlink:href="#mbc14d74dda" x="59.086509" y="145.171925" style="fill: #1d3557; stroke: #1d3557; stroke-linejoin: miter"/>
     <use xlink:href="#mbc14d74dda" x="108.502658" y="160.495203" style="fill: #1d3557; stroke: #1d3557; stroke-linejoin: miter"/>
     <use xlink:href="#mbc14d74dda" x="207.334957" y="178.951285" style="fill: #1d3557; stroke: #1d3557; stroke-linejoin: miter"/>
    </g>
   </g>
   <g id="line2d_18">
    <defs>
     <path id="mec050a5259" d="M 0 2.8 
C 0.742569 2.8 1.454824 2.504974 1.979899 1.979899 
C 2.504974 1.454824 2.8 0.742569 2.8 0 
C 2.8 -0.742569 2.504974 -1.454824 1.979899 -1.979899 
C 1.454824 -2.504974 0.742569 -2.8 0 -2.8 
C -0.742569 -2.8 -1.454824 -2.504974 -1.979899 -1.979899 
C -2.504974 -1.454824 -2.8 -0.742569 -2.8 0 
C -2.8 0.742569 -2.504974 1.454824 -1.979899 1.979899 
C -1.454824 2.504974 -0.742569 2.8 0 2.8 
z
" style="stroke: #56858b; stroke-width: 1.1"/>
    </defs>
    <g clip-path="url(#p839ca43ede)">
     <use xlink:href="#mec050a5259" x="83.794584" y="84.995943" style="fill: #ffffff; stroke: #56858b; stroke-width: 1.1"/>
     <use xlink:href="#mec050a5259" x="108.502658" y="92.060036" style="fill: #ffffff; stroke: #56858b; stroke-width: 1.1"/>
    </g>
   </g>
   <g id="line2d_19">
    <defs>
     <path id="m96bba93fbb" d="M 0 -2.8 
L -2.8 2.8 
L 2.8 2.8 
z
" style="stroke: #1d3557; stroke-width: 1.1; stroke-linejoin: miter"/>
    </defs>
    <g clip-path="url(#p839ca43ede)">
     <use xlink:href="#m96bba93fbb" x="83.794584" y="145.431487" style="fill: #1d3557; stroke: #1d3557; stroke-width: 1.1; stroke-linejoin: miter"/>
     <use xlink:href="#m96bba93fbb" x="108.502658" y="147.2775" style="fill: #1d3557; stroke: #1d3557; stroke-width: 1.1; stroke-linejoin: miter"/>
     <use xlink:href="#m96bba93fbb" x="157.918807" y="161.607206" style="fill: #1d3557; stroke: #1d3557; stroke-width: 1.1; stroke-linejoin: miter"/>
    </g>
   </g>
  </g>
  <g id="legend_1">
   <g id="line2d_20">
    <path d="M 28.0476 280.739813 
L 34.0476 280.739813 
L 40.0476 280.739813 
" style="fill: none; stroke: #56858b; stroke-width: 2.1; stroke-linecap: square"/>
    <defs>
     <path id="m34d5754974" d="M 0 2.6 
C 0.689528 2.6 1.350908 2.326048 1.838478 1.838478 
C 2.326048 1.350908 2.6 0.689528 2.6 0 
C 2.6 -0.689528 2.326048 -1.350908 1.838478 -1.838478 
C 1.350908 -2.326048 0.689528 -2.6 0 -2.6 
C -0.689528 -2.6 -1.350908 -2.326048 -1.838478 -1.838478 
C -2.326048 -1.350908 -2.6 -0.689528 -2.6 0 
C -2.6 0.689528 -2.326048 1.350908 -1.838478 1.838478 
C -1.350908 2.326048 -0.689528 2.6 0 2.6 
z
" style="stroke: #56858b"/>
    </defs>
    <g>
     <use xlink:href="#m34d5754974" x="34.0476" y="280.739813" style="fill: #a8dadc; stroke: #56858b"/>
    </g>
   </g>
   <g id="text_28">
    <text style="font-weight: 700; font-size: 7.5px; font-family: 'Times New Roman', serif; text-anchor: start; fill: #1d3557" x="44.5476" y="283.364813" transform="rotate(-0 44.5476 283.364813)">Hadamard</text>
   </g>
   <g id="line2d_21">
    <path d="M 28.0476 291.194109 
L 34.0476 291.194109 
L 40.0476 291.194109 
" style="fill: none"/>
    <defs>
     <path id="ma84d2a6c67" d="M 0 2.6 
C 0.689528 2.6 1.350908 2.326048 1.838478 1.838478 
C 2.326048 1.350908 2.6 0.689528 2.6 0 
C 2.6 -0.689528 2.326048 -1.350908 1.838478 -1.838478 
C 1.350908 -2.326048 0.689528 -2.6 0 -2.6 
C -0.689528 -2.6 -1.350908 -2.326048 -1.838478 -1.838478 
C -2.326048 -1.350908 -2.6 -0.689528 -2.6 0 
C -2.6 0.689528 -2.326048 1.350908 -1.838478 1.838478 
C -1.350908 2.326048 -0.689528 2.6 0 2.6 
z
" style="stroke: #56858b"/>
    </defs>
    <g>
     <use xlink:href="#ma84d2a6c67" x="34.0476" y="291.194109" style="fill: #ffffff; stroke: #56858b"/>
    </g>
   </g>
   <g id="text_29">
    <text style="font-weight: 700; font-size: 7.5px; font-family: 'Times New Roman', serif; text-anchor: start; fill: #1d3557" x="44.5476" y="293.819109" transform="rotate(-0 44.5476 293.819109)">Hadamard + directions</text>
   </g>
   <g id="line2d_22">
    <path d="M 28.0476 301.648406 
L 34.0476 301.648406 
L 40.0476 301.648406 
" style="fill: none; stroke: #1d3557; stroke-width: 2.1; stroke-linecap: square"/>
    <defs>
     <path id="m174b7fb6e7" d="M -2.6 2.6 
L 2.6 2.6 
L 2.6 -2.6 
L -2.6 -2.6 
z
" style="stroke: #1d3557; stroke-linejoin: miter"/>
    </defs>
    <g>
     <use xlink:href="#m174b7fb6e7" x="34.0476" y="301.648406" style="fill: #1d3557; stroke: #1d3557; stroke-linejoin: miter"/>
    </g>
   </g>
   <g id="text_30">
    <text style="font-weight: 700; font-size: 7.5px; font-family: 'Times New Roman', serif; text-anchor: start; fill: #1d3557" x="44.5476" y="304.273406" transform="rotate(-0 44.5476 304.273406)">PrismQuant</text>
   </g>
   <g id="line2d_23">
    <path d="M 28.0476 312.102703 
L 34.0476 312.102703 
L 40.0476 312.102703 
" style="fill: none; stroke-dasharray: 1.7,2.805; stroke-dashoffset: 0; stroke: #1d3557; stroke-width: 1.7"/>
    <defs>
     <path id="m21556c9350" d="M 0 -2.6 
L -2.6 2.6 
L 2.6 2.6 
z
" style="stroke: #1d3557; stroke-linejoin: miter"/>
    </defs>
    <g>
     <use xlink:href="#m21556c9350" x="34.0476" y="312.102703" style="fill: #1d3557; stroke: #1d3557; stroke-linejoin: miter"/>
    </g>
   </g>
   <g id="text_31">
    <text style="font-weight: 700; font-size: 7.5px; font-family: 'Times New Roman', serif; text-anchor: start; fill: #1d3557" x="44.5476" y="314.727703" transform="rotate(-0 44.5476 314.727703)">PrismQuant + directions</text>
   </g>
  </g>
 </g>
 <defs>
  <clipPath id="p839ca43ede">
   <rect x="44.064" y="36.828" width="190.944" height="204.228"/>
  </clipPath>
 </defs>
</svg>
