<?xml version="1.0" encoding="utf-8" standalone="no"?>
<!DOCTYPE svg PUBLIC "-//W3C//DTD SVG 1.1//EN"
  "http://www.w3.org/Graphics/SVG/1.1/DTD/svg11.dtd">
<svg xmlns:xlink="http://www.w3.org/1999/xlink" width="133.2pt" height="123.84pt" viewBox="0 0 133.2 123.84" xmlns="http://www.w3.org/2000/svg" version="1.1">
 <metadata>
  <rdf:RDF xmlns:dc="http://purl.org/dc/elements/1.1/" xmlns:cc="http://creativecommons.org/ns#" xmlns:rdf="http://www.w3.org/1999/02/22-rdf-syntax-ns#">
   <cc:Work>
    <dc:type rdf:resource="http://purl.org/dc/dcmitype/StillImage"/>
    <dc:date>2026-09-04T16:30:01.010440</dc:date>
    <dc:format>image/svg+xml</dc:format>
    <dc:creator>
     <cc:Agent>
      <dc:title>Matplotlib v3.10.5, https://matplotlib.org/</dc:title>
     </cc:Agent>
    </dc:creator>
   </cc:Work>
  </rdf:RDF>
 </metadata>
 <defs>
  <style type="text/css">*{stroke-linejoin: round; stroke-linecap: butt}</style>
 </defs>
 <g id="figure_1">
  <g id="patch_1">
   <path d="M 0 123.84 
L 133.2 123.84 
L 133.2 0 
L 0 0 
z
" style="fill: #ffffff"/>
  </g>
  <g id="axes_1">
   <g id="patch_2">
    <path d="M 38.628 92.88 
L 127.872 92.88 
L 127.872 6.192 
L 38.628 6.192 
z
" style="fill: #ffffff"/>
   </g>
   <g id="matplotlib.axis_1">
    <g id="xtick_1">
     <g id="line2d_1">
      <defs>
       <path id="m9459276a02" d="M 0 0 
L 0 2.2 
" style="stroke: #2d3f54; stroke-width: 0.5"/>
      </defs>
      <g>
       <use xlink:href="#m9459276a02" x="38.628" y="92.88" style="fill: #2d3f54; stroke: #2d3f54; stroke-width: 0.5"/>
      </g>
     </g>
     <g id="text_1">
      <text style="font-size: 7px; font-family: 'Times New Roman', 'Liberation Serif', 'DejaVu Serif', serif; text-anchor: start; fill: #2d3f54" x="38.628" y="103.898906" transform="rotate(-0 38.628 103.898906)">1</text>
     </g>
    </g>
    <g id="xtick_2">
     <g id="line2d_2">
      <g>
       <use xlink:href="#m9459276a02" x="127.872" y="92.88" style="fill: #2d3f54; stroke: #2d3f54; stroke-width: 0.5"/>
      </g>
     </g>
     <g id="text_2">
      <text style="font-size: 7px; font-family: 'Times New Roman', 'Liberation Serif', 'DejaVu Serif', serif; text-anchor: end; fill: #2d3f54" x="127.872" y="103.898906" transform="rotate(-0 127.872 103.898906)">256</text>
     </g>
    </g>
    <g id="text_3">
     <text style="font-size: 8px; font-family: 'Times New Roman', 'Liberation Serif', 'DejaVu Serif', serif; text-anchor: middle; fill: #2d3f54" x="83.25" y="115.433437" transform="rotate(-0 83.25 115.433437)">directions retained, k</text>
    </g>
   </g>
   <g id="matplotlib.axis_2">
    <g id="ytick_1">
     <g id="line2d_3">
      <defs>
       <path id="m6a63da9a80" d="M 0 0 
L -2.2 0 
" style="stroke: #2d3f54; stroke-width: 0.5"/>
      </defs>
      <g>
       <use xlink:href="#m6a63da9a80" x="38.628" y="92.88" style="fill: #2d3f54; stroke: #2d3f54; stroke-width: 0.5"/>
      </g>
     </g>
     <g id="text_4">
      <text style="font-size: 7px; font-family: 'Times New Roman', 'Liberation Serif', 'DejaVu Serif', serif; text-anchor: end; fill: #2d3f54" x="32.928" y="95.539453" transform="rotate(-0 32.928 95.539453)">0.0</text>
     </g>
    </g>
    <g id="ytick_2">
     <g id="line2d_4">
      <g>
       <use xlink:href="#m6a63da9a80" x="38.628" y="71.208" style="fill: #2d3f54; stroke: #2d3f54; stroke-width: 0.5"/>
      </g>
     </g>
     <g id="text_5">
      <text style="font-size: 7px; font-family: 'Times New Roman', 'Liberation Serif', 'DejaVu Serif', serif; text-anchor: end; fill: #2d3f54" x="32.928" y="73.867453" transform="rotate(-0 32.928 73.867453)">0.2</text>
     </g>
    </g>
    <g id="ytick_3">
     <g id="line2d_5">
      <g>
       <use xlink:href="#m6a63da9a80" x="38.628" y="49.536" style="fill: #2d3f54; stroke: #2d3f54; stroke-width: 0.5"/>
      </g>
     </g>
     <g id="text_6">
      <text style="font-size: 7px; font-family: 'Times New Roman', 'Liberation Serif', 'DejaVu Serif', serif; text-anchor: end; fill: #2d3f54" x="32.928" y="52.195453" transform="rotate(-0 32.928 52.195453)">0.5</text>
     </g>
    </g>
    <g id="ytick_4">
     <g id="line2d_6">
      <g>
       <use xlink:href="#m6a63da9a80" x="38.628" y="27.864" style="fill: #2d3f54; stroke: #2d3f54; stroke-width: 0.5"/>
      </g>
     </g>
     <g id="text_7">
      <text style="font-size: 7px; font-family: 'Times New Roman', 'Liberation Serif', 'DejaVu Serif', serif; text-anchor: end; fill: #2d3f54" x="32.928" y="30.523453" transform="rotate(-0 32.928 30.523453)">0.8</text>
     </g>
    </g>
    <g id="ytick_5">
     <g id="line2d_7">
      <g>
       <use xlink:href="#m6a63da9a80" x="38.628" y="6.192" style="fill: #2d3f54; stroke: #2d3f54; stroke-width: 0.5"/>
      </g>
     </g>
     <g id="text_8">
      <text style="font-size: 7px; font-family: 'Times New Roman', 'Liberation Serif', 'DejaVu Serif', serif; text-anchor: end; fill: #2d3f54" x="32.928" y="8.851453" transform="rotate(-0 32.928 8.851453)">1.0</text>
     </g>
    </g>
    <g id="text_9">
     <text style="font-size: 8px; font-family: 'Times New Roman', 'Liberation Serif', 'DejaVu Serif', serif; text-anchor: middle; fill: #2d3f54" x="16.018312" y="49.536" transform="rotate(-90 16.018312 49.536)">cumulative energy</text>
    </g>
   </g>
   <g id="line2d_8">
    <path d="M 38.628 90.000705 
L 39.677929 86.87207 
L 40.377882 85.599295 
L 41.777788 83.657682 
L 43.177694 82.092877 
L 44.5776 80.821827 
L 45.977506 79.836065 
L 48.077365 78.632316 
L 50.5272 77.478976 
L 53.676988 76.228081 
L 57.876706 74.789849 
L 63.126353 73.240977 
L 69.075953 71.750649 
L 76.425459 70.180904 
L 84.124941 68.767445 
L 93.224329 67.330537 
L 103.023671 65.999057 
L 113.872941 64.741663 
L 126.472094 63.518119 
L 127.872 63.397093 
L 127.872 63.397093 
" clip-path="url(#p606cbbeada)" style="fill: none; stroke: #52647a; stroke-width: 1.8; stroke-linecap: square"/>
   </g>
   <g id="line2d_9">
    <path d="M 38.628 87.874252 
L 39.327953 85.975734 
L 40.377882 84.010081 
L 41.427812 82.547872 
L 42.827718 81.055259 
L 44.5776 79.534505 
L 46.677459 78.012867 
L 49.477271 76.299406 
L 52.627059 74.646966 
L 56.126824 73.05892 
L 59.626588 71.692835 
L 64.176282 70.168409 
L 69.775906 68.549575 
L 75.375529 67.147223 
L 82.025082 65.692487 
L 89.724565 64.233375 
L 98.473976 62.805534 
L 108.273318 61.442569 
L 118.772612 60.208481 
L 127.872 59.299858 
L 127.872 59.299858 
" clip-path="url(#p606cbbeada)" style="fill: none; stroke-dasharray: 2.7,1.8; stroke-dashoffset: 0; stroke: #52647a; stroke-width: 0.9"/>
   </g>
   <g id="line2d_10">
    <path d="M 38.628 63.050495 
L 38.977976 54.923743 
L 39.327953 51.16253 
L 40.027906 47.014655 
L 40.727859 44.575517 
L 41.777788 42.190301 
L 42.827718 40.485573 
L 43.877647 39.167775 
L 45.277553 37.811544 
L 47.027435 36.464559 
L 49.477271 34.967304 
L 51.927106 33.727701 
L 54.726918 32.613352 
L 58.576659 31.383403 
L 62.776376 30.295742 
L 68.026024 29.181583 
L 73.975624 28.154941 
L 81.325129 27.123369 
L 90.074541 26.125448 
L 100.223859 25.190626 
L 112.123059 24.315375 
L 125.772141 23.532212 
L 127.872 23.430662 
L 127.872 23.430662 
" clip-path="url(#p606cbbeada)" style="fill: none; stroke-dasharray: 1,2; stroke-dashoffset: 0; stroke: #52647a"/>
   </g>
   <g id="patch_3">
    <path d="M 38.628 92.88 
L 38.628 6.192 
" style="fill: none; stroke: #2d3f54; stroke-width: 0.6; stroke-linejoin: miter; stroke-linecap: square"/>
   </g>
   <g id="patch_4">
    <path d="M 38.628 92.88 
L 127.872 92.88 
" style="fill: none; stroke: #2d3f54; stroke-width: 0.6; stroke-linejoin: miter; stroke-linecap: square"/>
   </g>
   <g id="text_10">
    <text style="font-size: 7.5px; font-family: 'Times New Roman', 'Liberation Serif', 'DejaVu Serif', serif; text-anchor: end; fill: #2d3f54" x="125.772141" y="17.863295" transform="rotate(-0 125.772141 17.863295)">layer 27</text>
   </g>
   <g id="text_11">
    <text style="font-size: 7.5px; font-family: 'Times New Roman', 'Liberation Serif', 'DejaVu Serif', serif; text-anchor: end; fill: #2d3f54" x="125.772141" y="54.599372" transform="rotate(-0 125.772141 54.599372)">layer 13</text>
   </g>
   <g id="text_12">
    <text style="font-size: 7.5px; font-family: 'Times New Roman', 'Liberation Serif', 'DejaVu Serif', serif; text-anchor: end; fill: #2d3f54" x="125.772141" y="72.130001" transform="rotate(-0 125.772141 72.130001)">layer 1</text>
   </g>
  </g>
 </g>
 <defs>
  <clipPath id="p606cbbeada">
   <rect x="38.628" y="6.192" width="89.244" height="86.688"/>
  </clipPath>
 </defs>
</svg>
